<svg xmlns="http://www.w3.org/2000/svg" width="40" height="40" viewBox="0 0 64 64" role="img"
    aria-label="Front view bus icon enhanced">
    <!-- Body -->
    <rect x="12" y="6" width="40" height="46" rx="6" fill="#1976d2" stroke="#0d447a" stroke-width="2" />
    <!-- Gradient overlay -->
    <linearGradient id="bodyShade" x1="0" y1="0" x2="0" y2="1">
        <stop offset="0%" stop-color="#ffffff" stop-opacity="0.15" />
        <stop offset="100%" stop-color="#000000" stop-opacity="0.15" />
    </linearGradient>
    <rect x="12" y="6" width="40" height="46" rx="6" fill="url(#bodyShade)" opacity="0.6" />
    <!-- Destination sign -->
    <rect x="18" y="8" width="28" height="4" rx="1" fill="#0d447a" />
    <!-- Windshield -->
    <g stroke="#0d447a" stroke-width="1.5" fill="#e6f4ff">
        <rect x="16" y="11" width="32" height="15" rx="2" />
        <!-- Center interior mirror hint -->
        <rect x="30" y="12" width="4" height="3" rx="0.8" fill="#c9dde9" stroke="#0d447a" stroke-width="0.6" />
    </g>
    <!-- Wipers -->
    <line x1="20" y1="24" x2="28" y2="14" stroke="#145087" stroke-width="1" stroke-linecap="round" opacity="0.55" />
    <line x1="44" y1="24" x2="36" y2="14" stroke="#145087" stroke-width="1" stroke-linecap="round" opacity="0.55" />
    <!-- Side mirrors -->
    <g stroke="#0d447a" stroke-width="1.4" fill="#e6f4ff">
        <line x1="12" y1="16" x2="7" y2="18" stroke="#0d447a" stroke-width="1.6" stroke-linecap="round" />
        <rect x="5" y="16" width="4" height="5" rx="1" />
        <line x1="52" y1="16" x2="57" y2="18" stroke="#0d447a" stroke-width="1.6" stroke-linecap="round" />
        <rect x="55" y="16" width="4" height="5" rx="1" />
    </g>
    <!-- Passenger windows panel -->
    <g stroke="#0d447a" stroke-width="1.2" fill="#e6f4ff">
        <rect x="16" y="27" width="32" height="10" rx="2" />
        <line x1="24" y1="27" x2="24" y2="37" stroke="#0d447a" stroke-width="1" />
        <line x1="32" y1="27" x2="32" y2="37" stroke="#0d447a" stroke-width="1" />
        <line x1="40" y1="27" x2="40" y2="37" stroke="#0d447a" stroke-width="1" />
    </g>
    <!-- Grill -->
    <rect x="20" y="41" width="24" height="4" rx="1" fill="#0d4d8c" />
    <rect x="22" y="41.9" width="8" height="2.2" fill="#1b6ebd" opacity="0.65" />
    <rect x="34" y="41.9" width="8" height="2.2" fill="#1b6ebd" opacity="0.65" />
    <!-- Headlights -->
    <circle cx="18" cy="43" r="3" fill="#ffd978" stroke="#c79f2d" stroke-width="1" />
    <circle cx="46" cy="43" r="3" fill="#ffd978" stroke="#c79f2d" stroke-width="1" />
    <!-- Indicators -->
    <circle cx="18" cy="37" r="1.4" fill="#ff9f40" />
    <circle cx="46" cy="37" r="1.4" fill="#ff9f40" />
    <!-- Tires with depth -->
    <g>
        <ellipse cx="22" cy="55" rx="7" ry="6.5" fill="#181818" stroke="#0b0b0b" stroke-width="2" />
        <ellipse cx="42" cy="55" rx="7" ry="6.5" fill="#181818" stroke="#0b0b0b" stroke-width="2" />
        <circle cx="22" cy="55" r="2.4" fill="#bfc4c7" />
        <circle cx="42" cy="55" r="2.4" fill="#bfc4c7" />
        <circle cx="22" cy="55" r="1.1" fill="#6d7174" />
        <circle cx="42" cy="55" r="1.1" fill="#6d7174" />
    </g>
    <!-- Shadow -->
    <ellipse cx="32" cy="59" rx="19" ry="3.6" fill="#000" opacity="0.16" />
</svg>